<?xml version="1.0" encoding="UTF-8"?>
<svg width="340px" height="200px" viewBox="0 0 340 200" version="1.1" xmlns="http://www.w3.org/2000/svg" xmlns:xlink="http://www.w3.org/1999/xlink">
    <!-- Generator: Sketch 41.2 (35397) - http://www.bohemiancoding.com/sketch -->
    <title>Group</title>
    <desc>Created with Sketch.</desc>
    <defs>
        <linearGradient x1="50%" y1="0%" x2="50%" y2="100%" id="linearGradient-1">
            <stop stop-color="#064397" stop-opacity="0.5" offset="0%"></stop>
            <stop stop-color="#000000" stop-opacity="0.5" offset="100%"></stop>
        </linearGradient>
        <rect id="path-2" x="0" y="0" width="340" height="200" rx="8"></rect>
    </defs>
    <g id="Page-1" stroke="none" stroke-width="1" fill="none" fill-rule="evenodd">
        <g id="Artboard">
            <g id="Group">
                <g id="Rectangle">
                    <use fill="#299CE8" xlink:href="#path-2"></use>
                    <use fill="url(#linearGradient-1)" xlink:href="#path-2"></use>
                </g>
                <path d="M34.5,44.5 L297.729938,44.5" id="Line" stroke="#7FB5F5" stroke-linecap="square"></path>
                <path d="M38.5,156.5 L301.729938,156.5" id="Line" stroke="#7FB5F5" stroke-linecap="square"></path>
                <path d="M38.5,98.5 L301.729938,98.5" id="Line" stroke="#9BC4F5" stroke-linecap="square"></path>
                <rect id="Rectangle-2" fill-opacity="0.8" fill="#7EAEE7" x="38" y="70" width="10" height="76" rx="5"></rect>
                <rect id="Rectangle-2" fill-opacity="0.8" fill="#7EAEE7" x="58" y="85" width="10" height="61" rx="5"></rect>
                <rect id="Rectangle-2" fill-opacity="0.8" fill="#7EAEE7" x="78" y="85" width="10" height="61" rx="5"></rect>
                <rect id="Rectangle-2" fill-opacity="0.8" fill="#7EAEE7" x="98" y="70" width="10" height="76" rx="5"></rect>
                <rect id="Rectangle-2" fill-opacity="0.8" fill="#7EAEE7" x="118" y="70" width="10" height="76" rx="5"></rect>
                <rect id="Rectangle-2" fill-opacity="0.8" fill="#7EAEE7" x="138" y="70" width="10" height="76" rx="5"></rect>
                <rect id="Rectangle-2" fill-opacity="0.8" fill="#7EAEE7" x="158" y="56" width="10" height="90" rx="5"></rect>
                <rect id="Rectangle-2" fill-opacity="0.8" fill="#7EAEE7" x="178" y="56" width="10" height="90" rx="5"></rect>
                <rect id="Rectangle-2" fill-opacity="0.8" fill="#7EAEE7" x="198" y="70" width="10" height="76" rx="5"></rect>
                <rect id="Rectangle-2" fill-opacity="0.8" fill="#7EAEE7" x="218" y="85" width="10" height="61" rx="5"></rect>
                <rect id="Rectangle-2" fill-opacity="0.8" fill="#7EAEE7" x="238" y="96" width="10" height="50" rx="5"></rect>
                <rect id="Rectangle-2" fill-opacity="0.8" fill="#7EAEE7" x="258" y="70" width="10" height="76" rx="5"></rect>
                <rect id="Rectangle-2" fill-opacity="0.8" fill="#7EAEE7" x="278" y="70" width="10" height="76" rx="5"></rect>
            </g>
        </g>
    </g>
</svg>